<?xml version="1.0" encoding="UTF-8" ?>
<!DOCTYPE svg PUBLIC "-//W3C//DTD SVG 1.1//EN" "http://www.w3.org/Graphics/SVG/1.1/DTD/svg11.dtd">
<svg width="1715pt" height="405pt" viewBox="0 0 1715 405" version="1.1" xmlns="http://www.w3.org/2000/svg">
<g id="#a69ffcff">
<path fill="#a69ffc" opacity="1.00" d=" M 326.42 17.58 C 334.61 12.80 344.31 13.33 353.43 13.55 C 361.44 14.67 369.12 18.38 374.65 24.34 C 381.63 31.68 387.63 40.03 395.61 46.38 C 413.02 62.52 433.48 75.03 454.88 85.15 C 466.09 89.67 477.39 94.08 489.14 96.96 C 488.74 99.49 488.06 102.04 488.26 104.63 C 489.18 105.76 490.59 106.32 491.82 107.06 C 490.86 107.86 489.91 108.66 488.95 109.45 C 490.64 109.43 492.32 109.51 494.01 109.66 C 493.07 111.50 492.17 113.36 491.33 115.25 C 492.37 114.43 493.40 113.60 494.43 112.76 C 495.50 113.70 496.71 114.55 497.52 115.74 C 497.70 117.80 496.19 119.56 495.45 121.39 C 495.95 121.68 496.95 122.25 497.46 122.53 C 497.35 123.07 497.13 124.14 497.02 124.68 C 478.20 121.21 459.91 115.26 442.36 107.65 C 423.33 98.65 405.16 87.66 388.95 74.20 C 380.49 66.86 372.17 59.34 364.57 51.10 C 360.41 46.70 357.09 40.90 350.93 39.06 C 346.66 36.93 341.73 38.34 337.83 40.59 C 332.84 43.44 330.27 49.23 329.59 54.72 C 330.76 63.46 337.79 69.47 343.64 75.36 C 349.77 82.56 356.84 88.87 363.38 95.69 C 370.63 104.04 379.19 111.17 386.33 119.62 C 397.51 130.46 407.96 141.99 419.12 152.85 C 426.33 161.31 434.88 168.49 442.18 176.87 C 447.26 182.09 452.52 187.14 457.61 192.36 C 464.63 200.63 473.02 207.61 480.12 215.81 C 486.86 222.77 494.03 229.33 500.37 236.66 C 510.75 246.66 520.36 257.39 530.71 267.42 C 535.20 271.58 538.51 277.04 543.98 280.10 C 550.59 272.66 558.05 266.03 564.83 258.76 C 567.23 255.91 569.92 253.33 572.56 250.71 C 573.56 251.21 574.57 251.72 575.58 252.23 C 575.54 254.18 575.27 256.19 575.76 258.11 C 578.24 260.24 581.26 261.60 584.11 263.16 C 583.06 263.82 582.01 264.48 580.96 265.14 C 582.15 265.77 583.35 266.41 584.55 267.04 C 583.74 268.35 582.94 269.66 582.15 270.98 C 583.25 270.35 584.35 269.72 585.47 269.10 C 585.22 270.68 585.00 272.26 584.72 273.83 C 580.23 279.86 574.26 284.64 569.15 290.13 C 564.76 293.99 561.66 299.28 556.51 302.26 C 550.12 305.67 542.42 305.60 535.49 304.14 C 528.62 302.35 523.99 296.67 519.15 291.89 C 513.08 284.94 506.27 278.70 499.82 272.11 C 492.89 263.79 484.41 256.91 477.39 248.67 C 472.23 243.48 467.03 238.31 461.85 233.14 C 455.79 225.92 448.65 219.69 442.17 212.85 C 435.24 204.77 426.91 198.01 420.11 189.82 C 413.69 183.26 406.90 177.05 400.87 170.13 C 394.79 163.87 388.25 158.02 382.61 151.34 C 376.22 144.76 369.40 138.57 363.38 131.64 C 356.95 125.06 350.12 118.85 344.14 111.85 C 334.28 102.37 325.13 92.21 315.37 82.64 C 311.25 77.58 307.41 71.95 306.11 65.44 C 304.49 56.53 304.46 47.09 307.58 38.50 C 311.22 29.64 318.29 22.46 326.42 17.58 Z" />
</g>
<g id="#b79dfeff">
<path fill="#b79dfe" opacity="1.00" d=" M 708.14 29.16 C 713.65 22.24 721.05 16.32 729.86 14.41 C 734.49 13.12 739.31 13.57 744.05 13.48 C 754.14 13.11 764.00 17.94 770.67 25.38 C 775.78 30.09 779.63 36.24 781.14 43.06 C 782.52 47.57 781.84 52.32 782.01 56.96 C 782.35 63.82 780.23 70.68 776.57 76.45 C 772.47 82.85 766.20 87.36 761.45 93.22 C 754.42 100.59 746.78 107.39 740.15 115.14 C 728.29 126.64 717.21 138.88 705.33 150.37 C 697.91 159.18 688.94 166.57 681.42 175.29 C 674.71 182.29 667.41 188.72 661.15 196.13 C 655.41 201.79 649.80 207.58 644.00 213.18 C 643.63 211.20 642.75 209.39 641.79 207.64 C 642.03 206.69 642.29 205.74 642.56 204.80 C 639.40 202.55 636.24 200.27 633.31 197.73 C 634.05 196.69 634.80 195.65 635.56 194.62 C 634.34 193.01 633.12 191.42 631.89 189.84 C 636.64 184.96 641.70 180.37 646.15 175.20 C 652.78 168.17 660.07 161.76 666.36 154.40 C 671.80 148.83 677.41 143.42 682.85 137.84 C 690.28 129.29 699.04 121.99 706.39 113.37 C 711.67 107.96 717.11 102.71 722.39 97.30 C 729.79 88.76 738.55 81.50 745.86 72.88 C 750.02 68.69 754.73 64.62 756.69 58.84 C 758.98 53.23 756.20 46.96 752.42 42.72 C 749.47 40.35 745.86 38.69 742.14 38.00 C 736.15 37.81 730.52 41.27 727.00 45.97 C 709.67 65.84 689.32 83.18 666.37 96.24 C 650.78 105.74 633.79 112.66 616.45 118.26 C 616.37 117.16 616.31 116.07 616.25 114.97 C 614.05 114.09 611.78 113.36 609.50 112.74 C 611.60 110.71 613.27 108.30 614.52 105.66 C 612.88 105.85 611.28 106.32 609.76 106.92 C 607.03 104.98 609.77 102.65 611.02 100.77 C 609.60 99.97 608.03 99.92 606.54 100.55 C 606.61 99.70 606.69 98.85 606.79 98.01 C 605.37 97.27 603.95 96.52 602.55 95.77 C 624.25 89.49 645.06 80.18 663.84 67.61 C 673.08 61.96 681.63 55.25 689.66 48.00 C 696.54 42.46 702.31 35.75 708.14 29.16 Z" />
</g>
<g id="#a0a0fbff">
<path fill="#a0a0fb" opacity="1.00" d=" M 248.54 94.70 C 252.53 90.57 258.14 87.67 263.99 87.98 C 268.05 88.13 272.27 87.48 276.17 88.94 C 281.48 90.74 285.09 95.28 288.69 99.31 C 295.44 106.53 302.93 113.05 309.31 120.61 C 321.20 132.11 332.29 144.36 344.16 155.87 C 350.61 163.39 358.00 170.05 364.89 177.17 C 372.26 185.74 381.06 192.98 388.36 201.62 C 395.09 208.55 402.25 215.08 408.62 222.36 C 415.20 229.11 422.23 235.46 428.35 242.64 C 440.39 254.30 451.63 266.72 463.68 278.38 C 471.14 287.22 480.12 294.64 487.67 303.41 C 492.00 307.98 497.11 311.95 500.29 317.49 C 502.81 321.39 503.91 325.95 504.93 330.42 C 504.93 338.92 506.00 347.89 502.08 355.78 C 496.94 366.53 487.15 375.39 475.49 378.37 C 468.17 379.90 460.53 379.94 453.21 378.47 C 446.00 376.92 439.56 372.80 434.65 367.38 C 427.01 360.18 420.96 351.40 412.57 345.00 C 399.79 333.64 385.56 323.97 370.65 315.63 C 347.04 302.67 320.81 294.61 294.32 290.45 C 293.33 289.83 292.35 289.21 291.38 288.58 C 292.51 287.98 293.64 287.38 294.77 286.78 C 294.05 285.61 293.34 284.45 292.64 283.28 C 291.96 284.65 291.28 286.03 290.53 287.38 C 290.78 285.30 291.14 283.24 291.55 281.19 C 290.57 281.22 289.60 281.26 288.64 281.31 C 287.99 279.45 287.12 277.66 286.70 275.74 C 286.69 273.92 287.82 271.95 286.80 270.25 C 285.07 268.41 283.14 266.75 281.63 264.71 C 311.48 265.99 340.82 273.60 368.12 285.57 C 395.81 298.52 421.23 316.50 442.33 338.64 C 448.54 345.23 454.12 354.00 464.02 354.96 C 469.64 354.19 475.69 351.48 478.21 346.07 C 480.45 342.31 481.39 337.59 479.52 333.47 C 477.77 328.09 473.12 324.59 469.38 320.63 C 463.09 313.28 455.84 306.84 449.16 299.85 C 441.55 291.15 432.66 283.67 425.15 274.88 C 413.32 263.37 402.21 251.17 390.37 239.66 C 383.92 232.11 376.49 225.48 369.63 218.32 C 363.42 211.25 356.43 204.92 349.89 198.15 C 343.78 190.95 336.67 184.68 330.17 177.85 C 323.78 170.57 316.54 164.11 309.89 157.09 C 305.18 151.49 299.71 146.60 294.62 141.35 C 290.48 137.50 287.01 133.03 282.89 129.16 C 277.61 123.76 272.02 118.65 267.09 112.93 C 264.74 113.33 263.29 115.58 261.59 117.08 C 261.32 116.67 260.77 115.85 260.50 115.44 C 259.71 116.26 258.92 117.09 258.14 117.92 C 258.56 116.40 258.99 114.89 259.42 113.37 C 258.75 112.63 258.09 111.88 257.43 111.14 C 258.52 110.95 259.63 110.75 260.73 110.56 C 259.86 110.07 259.00 109.58 258.14 109.09 C 258.59 107.97 259.05 106.85 259.52 105.73 C 258.31 106.75 257.12 107.78 255.94 108.81 C 255.44 106.04 252.62 105.22 250.70 103.66 C 250.00 102.05 251.09 100.36 251.44 98.79 C 250.48 97.42 249.51 96.06 248.54 94.70 Z" />
</g>
<g id="#96a1faff">
<path fill="#96a1fa" opacity="1.00" d=" M 223.88 119.82 C 232.33 111.67 240.32 103.08 248.54 94.70 C 249.51 96.06 250.48 97.42 251.44 98.79 C 251.09 100.36 250.00 102.05 250.70 103.66 C 252.62 105.22 255.44 106.04 255.94 108.81 C 257.12 107.78 258.31 106.75 259.52 105.73 C 259.05 106.85 258.59 107.97 258.14 109.09 C 259.00 109.58 259.86 110.07 260.73 110.56 C 259.63 110.75 258.52 110.95 257.43 111.14 C 258.09 111.88 258.75 112.63 259.42 113.37 C 258.99 114.89 258.56 116.40 258.14 117.92 C 258.92 117.09 259.71 116.26 260.50 115.44 C 260.77 115.85 261.32 116.67 261.59 117.08 C 254.05 125.99 245.05 133.54 237.39 142.35 C 226.16 153.17 215.84 164.83 204.61 175.65 C 197.21 184.20 188.48 191.51 181.14 200.12 C 174.92 206.56 168.26 212.58 162.36 219.33 C 155.82 226.15 148.75 232.48 142.60 239.68 C 131.92 249.98 122.02 261.02 111.36 271.34 C 110.91 270.94 110.00 270.14 109.54 269.75 C 110.21 268.97 110.89 268.18 111.55 267.41 C 110.63 265.81 111.30 264.19 111.99 262.67 C 110.85 262.52 109.71 262.38 108.57 262.24 C 108.61 260.02 107.69 258.03 106.58 256.17 C 107.76 253.36 106.45 250.58 105.44 247.97 C 104.10 247.27 102.77 246.56 101.44 245.85 C 108.82 238.09 116.19 230.31 123.90 222.85 C 130.11 215.76 137.06 209.36 143.65 202.62 C 150.62 194.31 159.08 187.39 166.13 179.15 C 171.28 173.95 176.49 168.81 181.65 163.62 C 188.64 155.29 197.12 148.35 204.19 140.09 C 210.74 133.33 217.76 126.99 223.88 119.82 Z" />
</g>
<g id="#af9efdff">
<path fill="#af9efd" opacity="1.00" d=" M 568.60 102.61 C 580.13 101.64 591.38 98.68 602.55 95.77 C 603.95 96.52 605.37 97.27 606.79 98.01 C 606.69 98.85 606.61 99.70 606.54 100.55 C 608.03 99.92 609.60 99.97 611.02 100.77 C 609.77 102.65 607.03 104.98 609.76 106.92 C 611.28 106.32 612.88 105.85 614.52 105.66 C 613.27 108.30 611.60 110.71 609.50 112.74 C 611.78 113.36 614.05 114.09 616.25 114.97 C 616.31 116.07 616.37 117.16 616.45 118.26 C 599.02 123.39 581.10 126.98 562.94 127.98 C 552.64 128.95 542.28 128.32 531.95 128.51 C 520.27 127.73 508.50 127.09 497.02 124.68 C 497.13 124.14 497.35 123.07 497.46 122.53 C 496.95 122.25 495.95 121.68 495.45 121.39 C 496.19 119.56 497.70 117.80 497.52 115.74 C 496.71 114.55 495.50 113.70 494.43 112.76 C 493.40 113.60 492.37 114.43 491.33 115.25 C 492.17 113.36 493.07 111.50 494.01 109.66 C 492.32 109.51 490.64 109.43 488.95 109.45 C 489.91 108.66 490.86 107.86 491.82 107.06 C 490.59 106.32 489.18 105.76 488.26 104.63 C 488.06 102.04 488.74 99.49 489.14 96.96 C 504.13 101.19 519.62 103.36 535.16 104.11 C 544.58 105.34 554.01 103.70 563.43 103.43 C 565.11 102.95 566.89 103.02 568.60 102.61 Z" />
<path fill="#af9efd" opacity="1.00" d=" M 619.15 203.12 C 623.65 198.93 627.33 193.97 631.89 189.84 C 633.12 191.42 634.34 193.01 635.56 194.62 C 634.80 195.65 634.05 196.69 633.31 197.73 C 636.24 200.27 639.40 202.55 642.56 204.80 C 642.29 205.74 642.03 206.69 641.79 207.64 C 642.75 209.39 643.63 211.20 644.00 213.18 C 637.17 221.52 628.50 228.30 621.62 236.65 C 609.06 248.81 597.43 261.84 584.72 273.83 C 585.00 272.26 585.22 270.68 585.47 269.10 C 584.35 269.72 583.25 270.35 582.15 270.98 C 582.94 269.66 583.74 268.35 584.55 267.04 C 583.35 266.41 582.15 265.77 580.96 265.14 C 582.01 264.48 583.06 263.82 584.11 263.16 C 581.26 261.60 578.24 260.24 575.76 258.11 C 575.27 256.19 575.54 254.18 575.58 252.23 C 574.57 251.72 573.56 251.21 572.56 250.71 C 577.16 245.96 582.14 241.54 586.36 236.42 C 593.21 229.26 600.59 222.60 607.13 215.15 C 611.12 211.12 615.15 207.14 619.15 203.12 Z" />
</g>
<g id="#1f2041ff">
<path fill="#1f2041" opacity="1.00" d=" M 852.51 121.64 C 854.79 113.73 867.35 112.82 870.06 120.85 C 892.17 178.88 914.09 236.99 936.14 295.04 C 938.61 300.34 936.52 307.63 930.97 309.98 C 925.94 311.96 920.02 308.88 918.26 303.90 C 913.43 291.00 908.78 278.03 903.97 265.13 C 875.68 265.12 847.39 265.13 819.09 265.12 C 814.26 277.99 809.48 290.88 804.68 303.77 C 803.15 310.14 794.36 312.82 789.58 308.36 C 786.09 304.91 785.03 299.32 786.94 294.80 C 808.82 237.09 830.54 179.31 852.51 121.64 M 861.70 150.81 C 849.75 182.78 837.83 214.76 825.94 246.76 C 849.70 246.73 873.46 246.76 897.22 246.74 C 885.77 215.43 874.23 184.15 862.77 152.84 C 862.49 152.12 862.13 151.44 861.70 150.81 Z" />
<path fill="#1f2041" opacity="1.00" d=" M 962.51 125.05 C 962.39 119.58 967.44 114.49 973.01 115.23 C 976.55 115.25 979.59 117.81 980.92 120.99 C 1004.37 172.80 1027.75 224.64 1051.22 276.44 C 1071.34 231.10 1091.37 185.72 1111.46 140.36 C 1114.76 133.31 1117.46 125.95 1121.15 119.09 C 1125.19 112.66 1136.16 114.65 1137.77 122.08 C 1138.84 128.97 1137.97 136.04 1138.25 143.00 C 1138.25 195.32 1138.26 247.64 1138.25 299.97 C 1138.36 303.88 1136.27 307.91 1132.73 309.71 C 1128.59 311.65 1123.15 310.24 1120.73 306.30 C 1118.26 303.03 1118.94 298.76 1118.87 294.94 C 1118.86 251.21 1118.92 207.48 1118.84 163.74 C 1099.43 207.73 1080.05 251.73 1060.66 295.73 C 1059.37 298.58 1058.36 301.85 1055.60 303.65 C 1052.02 305.93 1046.71 305.51 1043.82 302.28 C 1041.92 300.26 1041.00 297.59 1039.86 295.13 C 1028.20 269.10 1016.49 243.10 1004.81 217.08 C 997.14 200.36 989.99 183.37 981.98 166.82 C 981.72 211.24 981.96 255.66 981.87 300.09 C 982.08 305.44 977.56 310.89 971.97 310.53 C 966.51 310.66 962.23 305.21 962.50 299.99 C 962.51 241.68 962.48 183.36 962.51 125.05 Z" />
<path fill="#1f2041" opacity="1.00" d=" M 1234.80 116.75 C 1239.52 113.39 1247.00 115.54 1248.74 121.23 C 1270.84 179.49 1292.95 237.76 1314.98 296.05 C 1317.33 301.88 1313.63 310.12 1306.92 310.51 C 1302.29 311.06 1298.00 307.69 1296.56 303.43 C 1291.89 290.69 1287.15 277.98 1282.57 265.21 C 1254.22 265.05 1225.87 265.11 1197.52 265.18 C 1193.05 277.41 1188.42 289.59 1183.92 301.81 C 1183.27 303.44 1182.73 305.12 1181.80 306.61 C 1178.88 311.11 1171.69 311.96 1167.88 308.17 C 1164.66 304.80 1163.58 299.54 1165.30 295.19 C 1186.23 239.81 1207.19 184.44 1228.13 129.07 C 1229.96 124.82 1230.79 119.61 1234.80 116.75 M 1204.51 246.78 C 1228.25 246.70 1252.00 246.79 1275.74 246.73 C 1263.96 214.64 1252.14 182.56 1240.41 150.45 C 1228.31 182.51 1216.33 214.62 1204.51 246.78 Z" />
<path fill="#1f2041" opacity="1.00" d=" M 1341.52 125.08 C 1341.51 119.69 1346.45 114.50 1352.01 115.24 C 1357.31 115.53 1361.17 120.91 1360.88 126.00 C 1360.89 180.59 1360.83 235.17 1360.91 289.75 C 1389.61 289.75 1418.31 289.74 1447.00 289.75 C 1452.39 289.52 1456.77 294.80 1456.53 299.99 C 1456.86 305.25 1452.52 310.72 1447.03 310.51 C 1414.99 310.50 1382.95 310.50 1350.91 310.51 C 1347.21 310.65 1343.82 308.06 1342.38 304.76 C 1341.13 301.99 1341.54 298.91 1341.49 295.98 C 1341.52 239.01 1341.47 182.04 1341.52 125.08 Z" />
<path fill="#1f2041" opacity="1.00" d=" M 1470.50 125.94 C 1470.11 120.57 1474.31 114.98 1479.98 115.19 C 1513.62 115.02 1547.28 115.19 1580.93 115.11 C 1584.03 115.16 1587.50 114.89 1590.14 116.90 C 1595.53 120.79 1595.55 130.08 1590.05 133.90 C 1587.46 135.93 1584.03 135.48 1580.99 135.52 C 1550.66 135.49 1520.33 135.51 1489.99 135.51 C 1490.01 157.63 1489.98 179.75 1490.01 201.87 C 1512.68 201.90 1535.36 201.83 1558.03 201.90 C 1561.69 201.68 1565.35 203.68 1566.88 207.07 C 1569.94 212.78 1567.09 221.94 1559.92 222.46 C 1536.61 222.58 1513.30 222.46 1490.00 222.51 C 1489.97 248.37 1490.05 274.22 1489.96 300.08 C 1490.09 305.44 1485.58 310.96 1479.95 310.53 C 1474.50 310.60 1470.33 305.22 1470.50 300.03 C 1470.49 242.00 1470.50 183.97 1470.50 125.94 Z" />
<path fill="#1f2041" opacity="1.00" d=" M 1631.42 115.66 C 1637.61 113.29 1644.60 118.48 1644.35 125.03 C 1644.41 183.36 1644.36 241.69 1644.38 300.02 C 1644.72 305.29 1640.51 310.78 1634.97 310.53 C 1629.21 311.11 1624.54 305.51 1625.00 300.01 C 1624.99 241.99 1625.01 183.98 1624.99 125.97 C 1624.70 121.64 1627.17 117.05 1631.42 115.66 Z" />
</g>
<g id="#8fa3f9ff">
<path fill="#8fa3f9" opacity="1.00" d=" M 72.35 275.35 C 82.33 265.79 91.55 255.50 101.44 245.85 C 102.77 246.56 104.10 247.27 105.44 247.97 C 106.45 250.58 107.76 253.36 106.58 256.17 C 107.69 258.03 108.61 260.02 108.57 262.24 C 109.71 262.38 110.85 262.52 111.99 262.67 C 111.30 264.19 110.63 265.81 111.55 267.41 C 110.89 268.18 110.21 268.97 109.54 269.75 C 110.00 270.14 110.91 270.94 111.36 271.34 C 108.46 274.13 106.08 277.40 103.14 280.15 C 92.64 290.32 82.89 301.20 72.37 311.35 C 68.61 315.58 64.74 319.71 60.63 323.62 C 57.27 326.72 54.32 330.46 53.10 334.94 C 51.34 339.92 53.94 345.16 56.85 349.14 C 60.08 352.32 64.52 354.49 69.04 354.95 C 73.68 354.08 78.53 352.29 81.63 348.55 C 91.60 336.87 102.92 326.43 114.65 316.55 C 130.34 304.68 146.85 293.65 164.86 285.58 C 175.86 280.87 187.02 276.40 198.61 273.34 C 199.93 276.36 201.77 279.18 204.78 280.74 C 202.66 281.07 200.53 281.43 198.40 281.73 C 200.22 284.59 200.33 288.14 202.14 291.01 C 202.83 293.51 205.65 292.18 207.48 292.26 C 207.26 293.97 207.04 295.68 206.83 297.39 C 195.41 300.98 183.99 304.81 173.24 310.14 C 162.21 314.88 152.14 321.54 142.19 328.20 C 130.14 336.21 118.97 345.51 108.91 355.90 C 101.69 363.63 95.17 372.96 84.94 376.93 C 76.21 380.12 66.56 380.17 57.51 378.37 C 51.84 376.81 46.23 374.21 42.13 369.88 C 38.89 366.45 35.11 363.45 32.76 359.28 C 30.10 354.63 28.41 349.38 28.03 344.02 C 27.93 337.47 27.61 330.81 29.59 324.47 C 33.35 312.42 44.49 305.47 52.16 296.17 C 58.82 289.17 66.09 282.73 72.35 275.35 Z" />
</g>
<g id="#97a1faff">
<path fill="#97a1fa" opacity="1.00" d=" M 214.19 269.51 C 236.27 264.48 259.09 263.96 281.63 264.71 C 283.14 266.75 285.07 268.41 286.80 270.25 C 287.82 271.95 286.69 273.92 286.70 275.74 C 287.12 277.66 287.99 279.45 288.64 281.31 C 289.60 281.26 290.57 281.22 291.55 281.19 C 291.14 283.24 290.78 285.30 290.53 287.38 C 291.28 286.03 291.96 284.65 292.64 283.28 C 293.34 284.45 294.05 285.61 294.77 286.78 C 293.64 287.38 292.51 287.98 291.38 288.58 C 292.35 289.21 293.33 289.83 294.32 290.45 C 291.66 290.49 289.01 290.16 286.43 289.57 C 276.99 289.33 267.54 287.64 258.10 288.90 C 255.88 289.16 253.58 288.68 251.43 289.43 C 248.07 289.47 244.72 289.70 241.43 290.39 C 229.66 291.30 218.23 294.50 206.83 297.39 C 207.04 295.68 207.26 293.97 207.48 292.26 C 205.65 292.18 202.83 293.51 202.14 291.01 C 200.33 288.14 200.22 284.59 198.40 281.73 C 200.53 281.43 202.66 281.07 204.78 280.74 C 201.77 279.18 199.93 276.36 198.61 273.34 C 203.82 272.13 208.91 270.43 214.19 269.51 Z" />
</g>
</svg>
