<?xml version="1.0" standalone="no"?>
<!DOCTYPE svg PUBLIC "-//W3C//DTD SVG 20010904//EN"
 "http://www.w3.org/TR/2001/REC-SVG-20010904/DTD/svg10.dtd">
<svg width="106" height="40" viewBox="0 0 106 40" fill="none" xmlns="http://www.w3.org/2000/svg">

<g transform="translate(0.000000,804.000000) scale(0.100000,-0.100000)" stroke="none">
<path
  d="M6265 7820 c-131 -21 -254 -79 -361 -170 -133 -113 -212 -224 -260
  -365 -24 -69 -28 -100 -32 -231 -3 -117 -1 -170 13 -235 19 -97 75 -220 133
  -297 22 -30 997 -1036 2166 -2236 1548 -1589 2141 -2191 2180 -2215 82 -49
  134 -61 267 -61 129 0 207 18 271 61 41 28 4251 4340 4333 4437 61 73 115 177
  141 272 14 50 18 102 18 230 0 191 -11 247 -76 380 -35 73 -57 101 -157 200
  -129 129 -198 172 -336 212 -68 19 -103 22 -240 22 -185 0 -244 -12 -370 -74
  -102 -50 -187 -121 -300 -251 -315 -363 -646 -632 -1110 -901 -500 -290 -1091
  -486 -1685 -560 -266 -33 -712 -32 -980 1 -580 71 -1185 270 -1661 546 -433
  251 -790 530 -1039 811 -257 289 -340 356 -510 404 -87 24 -306 35 -405 20z
  m278 -504 c54 -22 75 -39 157 -128 424 -463 782 -755 1270 -1038 492 -285
  1152 -507 1705 -575 466 -57 927 -57 1387 0 458 57 1049 235 1458 440 575 288
  1047 649 1481 1132 94 104 120 127 180 157 38 19 88 38 112 41 85 13 238 -58
  290 -133 37 -52 66 -123 73 -174 7 -54 -24 -152 -71 -223 -31 -45 -4158 -4287
  -4197 -4313 -13 -9 -24 -5 -56 21 -51 40 -4022 4115 -4110 4217 -90 104 -127
  184 -127 275 1 120 69 231 178 287 105 54 162 57 270 14z"
  fill="#b005fa"
/>
<path
  d="M4702 6330 c-102 -22 -151 -55 -292 -198 -620 -629 -4192 -4305
  -4219 -4341 -90 -124 -124 -250 -124 -461 0 -179 18 -264 81 -385 48 -92 219
  -270 314 -327 116 -69 200 -90 375 -96 219 -7 336 19 473 106 70 43 107 79
  291 279 294 319 647 597 1083 852 450 264 1067 467 1646 542 149 19 222 23
  490 23 269 0 342 -3 500 -22 584 -73 1194 -275 1680 -557 397 -231 758 -514
  1017 -797 214 -233 288 -300 396 -353 119 -59 198 -75 370 -75 159 0 247 16
  352 65 169 78 338 252 408 421 43 105 52 159 52 329 0 185 -12 243 -76 374
  -36 72 -61 104 -183 230 -312 322 -4075 4182 -4155 4262 -111 111 -155 129
  -321 135 -63 2 -134 -1 -158 -6z m2148 -2541 c1103 -1130 2049 -2101 2103
  -2157 151 -157 188 -254 148 -380 -39 -119 -105 -189 -218 -232 -77 -29 -147
  -24 -235 17 -73 34 -83 44 -333 308 -298 315 -666 602 -1075 840 -411 239
  -928 430 -1443 535 -582 117 -1363 117 -1937 -1 -740 -152 -1292 -397 -1921
  -850 -218 -158 -503 -419 -780 -714 -128 -137 -237 -179 -362 -140 -124 39
  -199 116 -238 247 -21 68 -21 71 -4 133 9 35 31 86 48 114 18 27 928 969 2022
  2092 1095 1123 2036 2089 2091 2147 56 57 108 102 116 100 8 -1 916 -928 2018
  -2059z"
  fill="#b005fa"
/>
<path
  d="M15771 5469 c-31 -8 -57 -24 -90 -57 -44 -46 -72 -110 -765 -1761
  -395 -943 -723 -1733 -728 -1755 -19 -83 27 -193 101 -242 101 -66 271 -31
  327 69 11 21 88 201 170 402 l149 365 908 -3 909 -2 151 -373 c89 -218 164
  -387 181 -408 55 -69 164 -100 259 -73 91 25 163 136 155 238 -4 46 -135 365
  -722 1761 -394 938 -729 1725 -744 1749 -46 76 -157 114 -261 90z m444 -1667
  c203 -496 366 -905 363 -907 -3 -3 -336 -4 -740 -3 l-736 3 372 906 c204 499
  372 906 372 905 1 0 167 -407 369 -904z"
  fill="#000000"
/>
<path
  d="M18225 5471 c-78 -20 -142 -79 -164 -150 -17 -57 -16 -3487 1 -3545
  18 -58 90 -128 151 -145 55 -16 141 -10 184 12 42 22 83 66 104 112 18 38 19
  101 19 1325 l1 1285 633 -1265 c561 -1121 638 -1269 675 -1302 86 -75 216 -75
  303 2 41 36 95 141 674 1324 l629 1286 5 -1317 c6 -1474 -2 -1343 79 -1416
  112 -102 309 -61 372 77 18 39 19 113 19 1794 0 1922 4 1790 -58 1855 -47 50
  -99 71 -177 71 -59 0 -78 -4 -117 -27 -26 -15 -58 -42 -71 -60 -13 -17 -352
  -702 -752 -1520 -401 -819 -732 -1490 -736 -1493 -5 -2 -346 672 -760 1498
  -413 827 -763 1516 -778 1531 -53 58 -160 88 -236 68z"
  fill="#000000"
/>
<path
  d="M24060 5465 c-101 -31 -51 75 -842 -1806 -396 -943 -724 -1736 -730
  -1764 -23 -108 51 -238 152 -265 107 -29 227 12 274 93 13 23 91 205 172 404
  l148 363 908 0 c499 0 908 -1 908 -3 0 -1 69 -173 154 -382 146 -359 157 -382
  199 -421 116 -105 286 -80 364 54 24 40 28 57 27 117 -1 69 -7 85 -723 1785
  -397 943 -731 1729 -743 1746 -28 41 -74 71 -128 83 -58 14 -85 13 -140 -4z
  m459 -1677 c199 -487 361 -889 361 -892 0 -3 -333 -6 -741 -6 -420 0 -739 4
  -737 9 2 5 169 414 373 909 237 578 372 895 376 884 4 -9 169 -416 368 -904z"
  fill="#000000"
/>
<path
  d="M26525 5471 c-78 -20 -142 -79 -164 -150 -8 -28 -11 -504 -11 -1782
  0 -1666 1 -1746 19 -1784 23 -51 89 -111 138 -124 26 -7 387 -11 1118 -11
  l1080 0 51 24 c187 87 175 353 -19 425 -19 8 -334 11 -973 11 l-944 0 0 1593
  c0 1380 -2 1600 -15 1643 -16 56 -71 118 -121 140 -40 17 -121 25 -159 15z"
  fill="#000000"
/>
<path
  d="M29355 5469 c-53 -13 -99 -45 -133 -93 l-27 -39 -3 -1774 c-2 -1737
  -2 -1774 17 -1811 88 -172 334 -176 424 -9 l22 42 3 778 2 777 753 0 c494 0
  765 4 790 11 151 42 199 259 80 371 -63 60 -32 58 -863 58 l-760 0 0 625 0
  625 1020 0 c679 0 1035 4 1068 11 58 12 121 61 146 113 20 43 21 145 1 194
  -20 47 -50 78 -100 105 l-40 22 -1180 2 c-711 1 -1196 -3 -1220 -8z"
  fill="#000000"
/>
<path
  d="M32738 5466 c-64 -17 -111 -56 -139 -113 l-24 -48 -3 -1725 c-2
  -1239 0 -1740 8 -1777 16 -72 60 -129 123 -159 121 -56 260 -13 320 99 l22 42
  0 1765 c0 1704 -1 1766 -19 1800 -25 48 -55 79 -96 100 -49 25 -135 32 -192
  16z"
  fill="#000000"
/>
</g>
</svg>
