<svg id="svg" version="1.1" xmlns="http://www.w3.org/2000/svg" xmlns:xlink="http://www.w3.org/1999/xlink" width="400" height="94.14519906323186" viewBox="0, 0, 400,94.14519906323186"><g id="svgg"><path id="path0" d="M72.750 2.567 C 72.383 2.687,71.761 2.884,71.367 3.005 C 70.973 3.126,70.591 3.331,70.519 3.461 C 70.446 3.591,70.337 3.690,70.277 3.682 C 70.216 3.673,70.099 3.667,70.015 3.667 C 69.743 3.667,67.000 6.454,67.000 6.730 C 67.000 6.879,66.925 7.000,66.833 7.000 C 66.742 7.000,66.667 7.088,66.667 7.195 C 66.667 7.303,66.563 7.509,66.436 7.654 C 66.003 8.149,65.606 10.182,65.604 11.917 C 65.599 15.413,66.317 16.956,69.417 20.111 C 70.425 21.138,71.569 22.321,71.960 22.739 C 72.350 23.158,72.757 23.500,72.863 23.500 C 72.969 23.500,73.015 23.540,72.966 23.590 C 72.917 23.639,73.861 24.682,75.063 25.909 C 79.702 30.639,84.252 35.368,84.306 35.514 C 84.336 35.598,84.472 35.667,84.607 35.667 C 84.742 35.667,84.807 35.742,84.750 35.833 C 84.693 35.925,84.751 36.000,84.879 36.000 C 85.006 36.000,85.209 36.184,85.329 36.409 C 85.449 36.633,85.605 36.802,85.674 36.784 C 85.743 36.765,85.826 36.820,85.858 36.906 C 85.890 36.991,87.293 38.454,88.975 40.156 C 90.657 41.858,92.305 43.550,92.638 43.917 C 92.970 44.283,93.300 44.565,93.371 44.542 C 93.442 44.519,93.481 44.566,93.458 44.647 C 93.435 44.727,94.339 45.716,95.467 46.844 C 96.595 47.972,97.570 48.979,97.634 49.081 C 97.698 49.184,98.031 49.479,98.373 49.736 C 98.716 49.993,98.954 50.272,98.903 50.356 C 98.851 50.440,98.870 50.488,98.946 50.462 C 99.022 50.437,99.121 50.490,99.167 50.579 C 99.336 50.909,100.682 52.167,100.865 52.167 C 100.970 52.167,101.011 52.211,100.957 52.265 C 100.903 52.319,101.472 52.976,102.221 53.726 C 102.970 54.475,104.258 55.798,105.083 56.665 C 105.908 57.532,106.640 58.225,106.708 58.204 C 106.777 58.184,106.834 58.260,106.834 58.375 C 106.835 58.536,109.369 61.200,110.802 62.545 C 110.923 62.658,111.260 63.003,111.552 63.311 C 113.204 65.057,117.800 69.605,118.083 69.776 C 119.341 70.531,119.565 70.583,121.500 70.580 C 122.861 70.578,123.537 70.507,123.833 70.336 C 124.063 70.204,124.310 70.113,124.383 70.134 C 124.551 70.182,130.167 64.545,130.167 64.327 C 130.167 64.239,130.279 64.167,130.417 64.167 C 130.554 64.167,130.667 64.099,130.667 64.017 C 130.667 63.934,131.529 63.007,132.583 61.956 C 133.637 60.904,134.500 59.955,134.500 59.846 C 134.500 59.736,134.556 59.677,134.625 59.714 C 134.789 59.801,135.335 59.224,135.208 59.097 C 135.155 59.044,135.188 59.000,135.281 59.000 C 135.429 59.000,137.833 56.711,137.833 56.570 C 137.833 56.420,138.648 55.667,138.811 55.667 C 138.915 55.667,139.000 55.586,139.000 55.488 C 139.000 55.389,140.050 54.272,141.333 53.006 C 142.617 51.739,143.667 50.616,143.667 50.508 C 143.667 50.401,143.742 50.360,143.833 50.417 C 143.925 50.473,144.000 50.435,144.000 50.331 C 144.000 50.092,144.420 49.667,144.655 49.667 C 144.753 49.667,144.833 49.603,144.833 49.526 C 144.833 49.449,145.696 48.511,146.750 47.442 C 147.804 46.373,148.667 45.424,148.667 45.332 C 148.667 45.241,148.731 45.185,148.810 45.208 C 148.888 45.231,149.620 44.546,150.435 43.687 C 151.250 42.827,153.323 40.713,155.042 38.989 C 156.760 37.265,158.167 35.775,158.167 35.677 C 158.167 35.580,158.292 35.500,158.444 35.500 C 158.597 35.500,158.683 35.461,158.635 35.413 C 158.587 35.364,159.854 33.996,161.452 32.371 C 164.854 28.910,164.563 29.208,165.132 28.605 C 165.380 28.343,166.945 26.754,168.609 25.076 C 170.274 23.398,171.593 21.981,171.540 21.929 C 171.487 21.876,171.537 21.833,171.651 21.833 C 171.904 21.833,172.333 21.422,172.333 21.179 C 172.333 21.080,172.393 21.019,172.467 21.042 C 172.540 21.065,172.859 20.785,173.175 20.420 C 173.491 20.055,174.125 19.368,174.583 18.893 C 175.971 17.455,176.546 16.558,177.025 15.083 C 177.252 14.383,177.336 10.487,177.143 9.583 C 176.852 8.222,176.779 8.000,176.618 8.000 C 176.523 8.000,176.489 7.955,176.544 7.901 C 176.664 7.781,176.126 6.794,175.664 6.285 C 174.566 5.077,174.172 4.691,173.499 4.167 C 172.581 3.452,172.083 3.167,171.752 3.167 C 171.614 3.167,171.500 3.104,171.500 3.028 C 171.500 2.951,171.406 2.880,171.292 2.869 C 171.177 2.858,170.673 2.733,170.172 2.591 C 166.132 1.448,162.055 3.184,158.707 7.471 C 158.162 8.169,156.117 10.150,155.573 10.507 C 155.348 10.654,155.215 10.826,155.276 10.888 C 155.338 10.949,155.302 11.000,155.195 11.000 C 155.088 11.000,154.719 11.268,154.375 11.596 C 154.031 11.924,153.544 12.301,153.292 12.434 C 153.040 12.567,152.833 12.748,152.833 12.838 C 152.833 12.927,152.755 13.000,152.660 13.000 C 152.564 13.000,152.320 13.155,152.118 13.344 C 151.916 13.534,151.412 13.907,151.000 14.173 C 150.587 14.440,150.164 14.730,150.059 14.819 C 149.955 14.907,149.823 14.934,149.768 14.879 C 149.712 14.823,149.667 14.848,149.667 14.934 C 149.667 15.020,149.334 15.272,148.927 15.494 C 148.520 15.717,148.232 15.970,148.286 16.058 C 148.342 16.149,148.296 16.164,148.180 16.092 C 148.059 16.017,147.810 16.121,147.571 16.345 C 147.349 16.554,147.166 16.655,147.164 16.571 C 147.163 16.486,147.106 16.492,147.039 16.583 C 146.891 16.785,146.447 17.062,145.667 17.440 C 145.346 17.595,144.952 17.834,144.792 17.970 C 144.631 18.107,144.500 18.168,144.500 18.106 C 144.500 17.985,143.229 18.590,142.858 18.888 C 142.734 18.987,142.516 19.086,142.373 19.107 C 142.230 19.128,141.581 19.368,140.932 19.641 C 140.282 19.914,139.300 20.304,138.750 20.508 C 138.200 20.711,137.600 20.937,137.417 21.010 C 137.233 21.082,136.896 21.177,136.667 21.221 C 136.438 21.264,136.025 21.378,135.750 21.473 C 135.475 21.568,134.912 21.734,134.500 21.842 C 134.087 21.950,133.548 22.112,133.302 22.202 C 133.056 22.292,132.643 22.387,132.385 22.413 C 131.950 22.458,130.813 22.685,129.833 22.924 C 129.391 23.032,127.498 23.258,125.167 23.481 C 121.670 23.815,116.279 23.508,112.036 22.734 C 111.091 22.561,108.934 21.986,105.750 21.058 C 104.331 20.645,103.107 20.187,102.461 19.827 C 102.301 19.739,102.086 19.667,101.983 19.667 C 101.879 19.667,100.922 19.245,99.855 18.729 C 98.789 18.213,97.598 17.653,97.208 17.485 C 96.819 17.316,96.500 17.101,96.500 17.006 C 96.500 16.911,96.356 16.833,96.181 16.833 C 96.005 16.833,95.836 16.777,95.806 16.708 C 95.726 16.529,94.373 15.667,94.170 15.667 C 94.077 15.667,94.000 15.592,94.000 15.500 C 94.000 15.408,93.897 15.333,93.770 15.333 C 93.644 15.333,93.448 15.222,93.335 15.085 C 93.222 14.949,93.070 14.873,92.999 14.918 C 92.927 14.962,92.825 14.886,92.773 14.749 C 92.720 14.612,92.562 14.500,92.422 14.500 C 92.282 14.500,92.167 14.425,92.167 14.333 C 92.167 14.242,92.088 14.167,91.993 14.167 C 91.897 14.167,91.621 13.983,91.379 13.759 C 91.137 13.535,90.878 13.389,90.803 13.435 C 90.728 13.482,90.667 13.453,90.667 13.371 C 90.667 13.290,90.310 12.970,89.875 12.660 C 89.440 12.350,89.058 12.037,89.028 11.965 C 88.997 11.893,88.910 11.833,88.834 11.833 C 88.758 11.833,88.295 11.452,87.806 10.985 C 87.317 10.519,86.716 10.032,86.470 9.904 C 86.225 9.775,85.975 9.518,85.916 9.333 C 85.858 9.147,85.740 9.038,85.655 9.091 C 85.570 9.143,85.500 9.113,85.500 9.023 C 85.500 8.799,84.537 7.852,84.424 7.965 C 84.374 8.015,84.333 7.963,84.333 7.849 C 84.333 7.736,84.240 7.548,84.125 7.432 C 84.010 7.317,83.579 6.822,83.167 6.334 C 81.896 4.829,80.698 3.769,79.847 3.394 C 79.610 3.290,79.151 3.088,78.826 2.944 C 77.409 2.319,74.132 2.116,72.750 2.567 M76.218 8.486 C 76.631 8.663,77.003 8.775,77.045 8.733 C 77.086 8.692,77.748 9.354,78.516 10.204 C 80.332 12.215,82.167 14.082,82.167 13.921 C 82.167 13.850,82.527 14.158,82.967 14.605 C 83.949 15.601,86.023 17.436,86.250 17.510 C 86.342 17.540,86.567 17.705,86.750 17.877 C 86.933 18.048,87.327 18.340,87.625 18.525 C 87.923 18.709,88.167 18.929,88.167 19.014 C 88.167 19.098,88.245 19.167,88.340 19.167 C 88.436 19.167,88.605 19.244,88.715 19.339 C 89.051 19.625,91.071 20.936,91.851 21.373 C 92.254 21.598,93.071 22.079,93.667 22.441 C 94.677 23.055,95.318 23.387,96.336 23.822 C 96.564 23.920,96.862 24.072,97.000 24.160 C 97.409 24.424,98.715 25.000,98.906 25.001 C 99.004 25.002,99.297 25.114,99.559 25.250 C 99.821 25.387,100.095 25.461,100.170 25.415 C 100.244 25.369,100.331 25.411,100.364 25.508 C 100.396 25.605,100.534 25.707,100.670 25.734 C 100.806 25.761,101.029 25.829,101.167 25.886 C 101.551 26.043,102.896 26.512,103.083 26.554 C 103.175 26.574,103.475 26.673,103.750 26.772 C 104.693 27.114,105.503 27.356,105.960 27.432 C 106.211 27.474,106.604 27.576,106.833 27.657 C 107.332 27.835,108.111 28.024,108.619 28.089 C 108.821 28.115,109.675 28.297,110.515 28.495 C 111.355 28.692,112.502 28.883,113.063 28.919 C 113.624 28.954,114.608 29.061,115.250 29.155 C 116.769 29.379,126.105 29.381,127.476 29.159 C 128.058 29.064,128.883 28.981,129.309 28.974 C 129.735 28.967,130.158 28.916,130.250 28.861 C 130.342 28.805,130.567 28.744,130.750 28.724 C 132.107 28.576,132.732 28.479,132.866 28.397 C 132.951 28.344,133.260 28.269,133.552 28.230 C 133.844 28.191,134.402 28.086,134.792 27.996 C 136.693 27.559,137.099 27.463,137.293 27.405 C 137.409 27.371,137.559 27.327,137.627 27.309 C 137.695 27.290,138.350 27.056,139.083 26.788 C 139.817 26.520,140.604 26.260,140.833 26.211 C 141.063 26.162,141.325 26.071,141.417 26.008 C 141.508 25.945,141.921 25.791,142.333 25.665 C 142.746 25.540,143.231 25.339,143.412 25.218 C 143.593 25.098,143.865 25.000,144.017 25.000 C 144.168 25.000,144.385 24.888,144.498 24.752 C 144.612 24.615,144.779 24.550,144.871 24.607 C 144.962 24.663,145.093 24.620,145.160 24.510 C 145.228 24.401,145.388 24.294,145.517 24.273 C 145.645 24.251,145.938 24.128,146.167 23.998 C 146.396 23.868,146.621 23.756,146.667 23.749 C 146.966 23.702,148.820 22.690,149.232 22.348 C 149.380 22.226,149.500 22.181,149.500 22.249 C 149.500 22.317,149.757 22.176,150.072 21.936 C 150.387 21.696,150.699 21.500,150.765 21.500 C 150.831 21.500,151.117 21.331,151.401 21.123 C 151.685 20.916,152.254 20.568,152.667 20.350 C 153.079 20.131,153.604 19.791,153.833 19.593 C 154.063 19.396,154.451 19.134,154.697 19.012 C 154.943 18.889,155.412 18.537,155.739 18.228 C 156.066 17.919,156.374 17.667,156.422 17.667 C 156.526 17.667,157.853 16.621,158.642 15.916 C 159.174 15.441,162.945 11.672,164.937 9.625 C 165.450 9.098,166.007 8.667,166.175 8.667 C 166.343 8.667,166.523 8.598,166.574 8.515 C 166.795 8.158,167.971 8.138,168.739 8.478 C 169.157 8.663,169.500 8.778,169.500 8.734 C 169.500 8.624,169.938 8.986,170.505 9.567 C 170.765 9.833,171.074 10.376,171.192 10.775 C 171.310 11.174,171.454 11.500,171.514 11.500 C 171.771 11.500,171.261 13.310,170.819 13.964 C 170.552 14.360,170.333 14.716,170.333 14.757 C 170.333 14.797,169.733 15.431,169.000 16.167 C 168.267 16.902,167.667 17.590,167.667 17.696 C 167.667 17.802,167.623 17.845,167.569 17.791 C 167.456 17.679,165.833 19.292,165.833 19.517 C 165.833 19.599,165.716 19.667,165.573 19.667 C 165.431 19.667,165.340 19.723,165.371 19.792 C 165.446 19.953,164.376 20.987,164.257 20.868 C 164.207 20.818,164.167 20.907,164.167 21.065 C 164.167 21.224,164.092 21.307,164.000 21.250 C 163.908 21.193,163.833 21.218,163.833 21.304 C 163.833 21.391,163.273 22.006,162.589 22.672 C 161.904 23.338,161.385 23.949,161.435 24.029 C 161.484 24.109,161.425 24.154,161.304 24.129 C 161.183 24.104,161.102 24.177,161.125 24.292 C 161.148 24.406,161.110 24.482,161.042 24.459 C 160.973 24.437,160.580 24.737,160.168 25.126 C 159.756 25.515,159.493 25.839,159.584 25.845 C 159.675 25.851,159.613 25.911,159.446 25.977 C 159.279 26.042,159.140 26.142,159.137 26.198 C 159.134 26.253,157.983 27.463,156.580 28.886 C 155.176 30.308,154.072 31.516,154.125 31.569 C 154.178 31.623,154.140 31.667,154.039 31.667 C 153.800 31.667,152.000 33.438,152.000 33.673 C 152.000 33.772,151.925 33.807,151.833 33.750 C 151.742 33.693,151.667 33.764,151.667 33.907 C 151.667 34.050,151.550 34.167,151.407 34.167 C 151.264 34.167,151.193 34.242,151.250 34.333 C 151.307 34.425,151.248 34.500,151.120 34.500 C 150.992 34.500,150.801 34.687,150.697 34.917 C 150.593 35.146,150.393 35.333,150.254 35.333 C 150.114 35.333,150.000 35.450,150.000 35.593 C 150.000 35.736,149.925 35.807,149.833 35.750 C 149.742 35.693,149.667 35.719,149.667 35.806 C 149.667 35.893,148.635 37.011,147.375 38.289 C 140.848 44.910,137.500 48.376,137.500 48.513 C 137.500 48.598,137.406 48.667,137.292 48.668 C 137.177 48.668,136.905 48.931,136.687 49.251 C 136.469 49.571,136.188 49.833,136.062 49.833 C 135.936 49.833,135.833 49.905,135.833 49.992 C 135.833 50.080,134.938 51.047,133.844 52.142 C 132.750 53.237,131.906 54.184,131.969 54.247 C 132.032 54.310,132.006 54.336,131.911 54.306 C 131.817 54.275,131.026 55.000,130.155 55.917 C 129.284 56.833,127.580 58.589,126.369 59.818 C 125.158 61.047,124.167 62.103,124.167 62.165 C 124.167 62.227,123.979 62.377,123.750 62.500 C 123.521 62.623,123.333 62.823,123.333 62.945 C 123.333 63.067,123.221 63.167,123.083 63.167 C 122.946 63.167,122.833 63.231,122.833 63.310 C 122.833 63.502,121.727 64.667,121.545 64.667 C 121.465 64.667,121.310 64.577,121.200 64.467 C 121.090 64.357,121.000 64.308,121.000 64.358 C 121.000 64.408,120.700 64.163,120.333 63.814 C 119.967 63.465,119.667 63.119,119.667 63.044 C 119.667 62.841,119.044 62.345,118.931 62.458 C 118.877 62.512,118.833 62.465,118.833 62.354 C 118.833 62.244,117.521 60.839,115.917 59.234 C 114.313 57.628,113.000 56.289,113.000 56.260 C 113.000 56.115,111.663 54.892,111.587 54.968 C 111.539 55.016,111.500 54.931,111.500 54.778 C 111.500 54.625,111.388 54.500,111.250 54.500 C 111.112 54.500,111.000 54.415,111.000 54.312 C 111.000 54.209,110.041 53.178,108.870 52.020 C 107.698 50.863,106.609 49.729,106.450 49.500 C 106.291 49.271,106.068 49.080,105.955 49.076 C 105.842 49.072,105.769 48.978,105.792 48.867 C 105.815 48.757,105.743 48.685,105.633 48.708 C 105.522 48.731,105.428 48.663,105.424 48.556 C 105.415 48.326,104.690 47.667,104.447 47.667 C 104.354 47.667,104.328 47.616,104.390 47.555 C 104.451 47.493,103.370 46.331,101.988 44.972 C 100.605 43.612,99.508 42.500,99.551 42.500 C 99.593 42.500,99.337 42.200,98.981 41.833 C 98.625 41.467,98.259 41.167,98.167 41.167 C 98.075 41.167,98.000 41.084,98.000 40.982 C 98.000 40.881,96.837 39.641,95.417 38.226 C 93.996 36.812,92.833 35.582,92.833 35.494 C 92.833 35.406,92.708 35.333,92.556 35.333 C 92.403 35.333,92.328 35.283,92.389 35.222 C 92.539 35.072,92.008 34.500,91.719 34.500 C 91.593 34.500,91.440 34.369,91.380 34.208 C 91.320 34.048,90.013 32.642,88.476 31.083 C 82.024 24.542,79.500 21.932,79.500 21.803 C 79.500 21.728,79.387 21.667,79.250 21.667 C 79.112 21.667,79.000 21.550,79.000 21.407 C 79.000 21.264,78.925 21.193,78.833 21.250 C 78.742 21.307,78.667 21.269,78.667 21.167 C 78.667 21.065,77.860 20.175,76.875 19.189 C 75.890 18.204,74.724 17.008,74.285 16.532 C 73.846 16.056,73.433 15.667,73.368 15.666 C 73.303 15.666,73.137 15.491,73.000 15.278 C 72.862 15.064,72.491 14.495,72.174 14.013 C 71.858 13.531,71.581 13.050,71.559 12.944 C 71.537 12.837,71.483 12.589,71.439 12.391 C 71.357 12.027,71.655 10.789,71.878 10.567 C 71.945 10.499,72.000 10.305,72.000 10.134 C 72.000 9.963,72.112 9.780,72.249 9.727 C 72.386 9.675,72.457 9.565,72.406 9.483 C 72.355 9.400,72.396 9.333,72.497 9.333 C 72.598 9.333,72.842 9.183,73.038 9.000 C 73.235 8.817,73.518 8.667,73.666 8.667 C 73.815 8.667,74.069 8.570,74.231 8.451 C 74.685 8.119,75.391 8.132,76.218 8.486 M54.667 19.984 C 53.677 20.296,53.500 20.382,53.500 20.547 C 53.500 20.643,53.454 20.676,53.397 20.620 C 53.271 20.493,47.773 25.970,47.620 26.375 C 47.560 26.535,47.408 26.667,47.283 26.667 C 47.079 26.667,46.167 27.546,46.167 27.742 C 46.167 27.786,45.004 28.976,43.583 30.388 C 42.162 31.799,41.000 33.039,41.000 33.144 C 41.000 33.248,40.922 33.333,40.827 33.333 C 40.732 33.333,40.339 33.680,39.952 34.104 C 39.566 34.527,38.182 35.941,36.877 37.244 C 35.572 38.548,34.553 39.664,34.613 39.724 C 34.673 39.784,34.646 39.833,34.553 39.833 C 34.310 39.833,33.585 40.493,33.576 40.722 C 33.572 40.829,33.478 40.898,33.367 40.875 C 33.257 40.852,33.185 40.924,33.208 41.034 C 33.231 41.145,33.158 41.238,33.045 41.242 C 32.932 41.247,32.711 41.434,32.553 41.659 C 32.396 41.884,31.307 43.016,30.134 44.174 C 28.960 45.333,28.000 46.330,28.000 46.391 C 28.000 46.451,27.850 46.650,27.667 46.833 C 27.483 47.017,27.333 47.138,27.333 47.103 C 27.333 47.068,27.033 47.339,26.667 47.706 C 26.300 48.073,26.000 48.393,26.000 48.418 C 26.000 48.443,24.688 49.781,23.083 51.391 C 21.479 53.001,20.167 54.409,20.167 54.520 C 20.167 54.631,20.123 54.678,20.069 54.625 C 19.963 54.518,19.333 55.002,19.333 55.191 C 19.333 55.255,18.358 56.283,17.167 57.475 C 15.975 58.667,15.000 59.724,15.000 59.825 C 15.000 59.925,14.815 60.092,14.589 60.195 C 14.362 60.298,14.217 60.446,14.265 60.524 C 14.313 60.603,14.277 60.667,14.183 60.667 C 13.958 60.667,12.667 61.938,12.667 62.160 C 12.667 62.255,12.610 62.333,12.542 62.334 C 12.473 62.334,12.199 62.521,11.932 62.750 C 11.666 62.979,11.499 63.167,11.560 63.167 C 11.622 63.167,10.471 64.361,9.003 65.820 C 7.535 67.280,6.333 68.559,6.333 68.663 C 6.333 68.768,6.258 68.807,6.167 68.750 C 6.075 68.693,6.000 68.708,5.999 68.782 C 5.999 68.856,5.117 69.823,4.041 70.931 C 2.391 72.628,0.879 74.667,1.270 74.667 C 1.327 74.667,1.293 74.765,1.194 74.884 C 0.659 75.529,0.530 80.399,1.016 81.589 C 1.127 81.861,1.238 82.183,1.263 82.304 C 1.487 83.407,3.929 86.082,5.543 86.992 C 8.072 88.418,11.992 88.502,14.706 87.188 C 15.688 86.713,18.248 84.470,18.043 84.265 C 17.989 84.211,18.031 84.167,18.138 84.167 C 18.244 84.167,18.538 83.882,18.791 83.535 C 19.043 83.187,20.071 82.156,21.074 81.243 C 22.077 80.330,23.220 79.276,23.613 78.901 C 24.007 78.525,24.356 78.245,24.388 78.277 C 24.421 78.310,24.639 78.160,24.872 77.943 C 25.106 77.727,25.418 77.503,25.565 77.447 C 25.713 77.390,25.833 77.271,25.833 77.183 C 25.833 77.095,25.974 76.978,26.147 76.923 C 26.424 76.835,26.688 76.649,27.458 75.997 C 27.573 75.900,27.668 75.879,27.669 75.952 C 27.671 76.024,27.743 75.971,27.830 75.833 C 27.917 75.696,28.047 75.583,28.119 75.583 C 28.191 75.583,28.512 75.395,28.833 75.166 C 29.506 74.685,30.128 74.314,31.125 73.799 C 31.515 73.598,31.833 73.374,31.833 73.300 C 31.833 73.227,31.931 73.167,32.050 73.167 C 32.169 73.167,32.360 73.073,32.475 72.958 C 32.590 72.844,32.736 72.749,32.800 72.748 C 32.864 72.747,33.592 72.426,34.417 72.033 C 35.242 71.641,36.142 71.220,36.417 71.098 C 37.337 70.691,37.916 70.441,38.000 70.414 C 38.046 70.400,38.196 70.343,38.333 70.288 C 38.749 70.123,41.232 69.312,41.500 69.254 C 41.637 69.224,42.204 69.047,42.759 68.859 C 43.915 68.469,43.977 68.454,46.333 68.001 C 47.296 67.816,48.308 67.593,48.583 67.506 C 48.858 67.419,49.677 67.303,50.403 67.250 C 51.129 67.196,51.766 67.126,51.819 67.095 C 52.119 66.917,57.439 66.853,59.500 67.001 C 63.717 67.304,64.065 67.343,64.962 67.607 C 65.445 67.750,65.936 67.830,66.053 67.785 C 66.171 67.740,66.451 67.804,66.675 67.929 C 66.900 68.053,67.266 68.158,67.488 68.161 C 67.875 68.166,68.139 68.231,69.534 68.660 C 69.874 68.764,70.309 68.880,70.500 68.917 C 70.834 68.981,71.713 69.248,72.417 69.498 C 73.191 69.774,73.928 70.026,74.083 70.069 C 74.292 70.127,75.118 70.450,75.667 70.688 C 75.896 70.787,76.308 70.965,76.583 71.082 C 76.858 71.200,77.503 71.492,78.017 71.731 C 78.530 71.971,79.036 72.167,79.142 72.167 C 79.247 72.167,79.333 72.242,79.333 72.333 C 79.333 72.425,79.444 72.500,79.578 72.500 C 79.852 72.500,80.942 73.075,81.346 73.434 C 81.491 73.562,81.735 73.667,81.888 73.667 C 82.041 73.667,82.168 73.723,82.169 73.792 C 82.170 73.860,82.458 74.054,82.810 74.223 C 83.161 74.391,83.659 74.710,83.917 74.931 C 84.174 75.152,84.486 75.333,84.609 75.333 C 84.732 75.333,84.833 75.396,84.833 75.472 C 84.833 75.548,85.040 75.717,85.292 75.847 C 85.544 75.976,85.787 76.123,85.833 76.172 C 85.879 76.221,86.329 76.556,86.833 76.917 C 87.337 77.277,87.805 77.650,87.872 77.745 C 87.951 77.855,87.998 77.857,88.003 77.750 C 88.007 77.658,88.087 77.715,88.180 77.875 C 88.273 78.035,88.442 78.167,88.555 78.167 C 88.667 78.167,88.881 78.298,89.030 78.458 C 89.179 78.619,89.775 79.162,90.355 79.667 C 91.344 80.526,92.706 81.778,93.007 82.105 C 93.081 82.185,93.428 82.581,93.779 82.986 C 95.882 85.413,97.873 87.167,98.524 87.167 C 98.683 87.167,98.859 87.240,98.914 87.329 C 99.019 87.498,100.004 87.807,101.000 87.981 C 102.039 88.163,104.561 88.086,105.417 87.846 C 106.574 87.522,108.339 86.678,108.447 86.399 C 108.496 86.271,108.607 86.167,108.695 86.167 C 109.454 86.167,111.853 82.832,112.209 81.282 C 113.159 77.142,112.291 74.169,109.208 71.006 C 108.452 70.230,107.833 69.536,107.833 69.464 C 107.833 69.392,107.777 69.352,107.708 69.375 C 107.640 69.398,107.583 69.357,107.583 69.285 C 107.583 69.212,107.340 68.999,107.042 68.810 C 106.744 68.622,106.542 68.400,106.593 68.317 C 106.645 68.234,106.557 68.167,106.399 68.167 C 106.241 68.167,106.151 68.126,106.201 68.077 C 106.250 68.028,105.081 66.765,103.603 65.270 C 102.126 63.775,100.279 61.886,99.500 61.072 C 98.721 60.257,98.046 59.608,98.000 59.629 C 97.954 59.650,97.913 59.573,97.909 59.458 C 97.905 59.344,97.806 59.271,97.688 59.296 C 97.571 59.321,97.523 59.264,97.582 59.169 C 97.640 59.075,97.538 58.942,97.354 58.874 C 97.170 58.806,96.997 58.675,96.968 58.583 C 96.940 58.492,96.860 58.435,96.792 58.458 C 96.723 58.481,96.685 58.436,96.708 58.359 C 96.731 58.281,95.869 57.338,94.792 56.263 C 93.715 55.188,92.833 54.239,92.833 54.154 C 92.833 54.069,92.777 54.019,92.708 54.042 C 92.640 54.065,92.562 54.029,92.536 53.963 C 92.440 53.717,89.652 51.000,89.496 51.000 C 89.407 51.000,89.333 50.918,89.333 50.819 C 89.333 50.719,88.330 49.613,87.103 48.360 C 85.877 47.108,84.683 45.872,84.449 45.614 C 84.215 45.355,83.963 45.149,83.887 45.155 C 83.812 45.162,83.750 45.105,83.750 45.030 C 83.750 44.851,83.231 44.333,83.051 44.333 C 82.975 44.333,82.836 44.165,82.742 43.958 C 82.648 43.752,82.480 43.602,82.369 43.625 C 82.258 43.648,82.185 43.601,82.208 43.522 C 82.231 43.442,81.444 42.574,80.458 41.594 C 79.473 40.613,78.667 39.737,78.667 39.646 C 78.667 39.555,78.592 39.527,78.500 39.583 C 78.408 39.640,78.333 39.615,78.333 39.527 C 78.333 39.298,76.201 37.167,75.971 37.167 C 75.865 37.167,75.823 37.121,75.879 37.065 C 75.935 37.009,74.823 35.793,73.407 34.362 C 71.992 32.931,70.833 31.713,70.833 31.656 C 70.833 31.524,70.168 30.917,70.024 30.917 C 69.965 30.917,69.935 30.860,69.958 30.792 C 69.981 30.723,69.910 30.685,69.799 30.708 C 69.689 30.731,69.595 30.666,69.591 30.563 C 69.587 30.460,68.337 29.129,66.814 27.605 C 65.290 26.080,64.071 24.833,64.103 24.833 C 64.136 24.833,63.789 24.458,63.333 24.000 C 62.877 23.542,62.428 23.167,62.336 23.167 C 62.243 23.167,62.167 23.054,62.167 22.917 C 62.167 22.779,62.054 22.667,61.917 22.667 C 61.779 22.667,61.684 22.610,61.706 22.542 C 61.775 22.325,60.114 20.715,59.417 20.321 C 58.703 19.918,55.579 19.697,54.667 19.984 M57.098 26.249 C 57.247 26.477,57.438 26.621,57.522 26.570 C 57.606 26.518,57.654 26.571,57.629 26.688 C 57.604 26.806,57.677 26.905,57.792 26.909 C 57.906 26.913,57.981 26.966,57.958 27.025 C 57.935 27.085,58.798 28.004,59.875 29.067 C 60.952 30.130,61.833 31.075,61.833 31.167 C 61.833 31.258,61.917 31.333,62.018 31.333 C 62.221 31.333,62.993 32.015,62.997 32.198 C 62.999 32.261,63.619 32.916,64.375 33.655 C 65.131 34.393,65.800 35.054,65.860 35.123 C 65.921 35.193,67.102 36.400,68.485 37.806 C 69.868 39.212,71.000 40.394,71.000 40.432 C 71.000 40.471,71.225 40.738,71.500 41.026 C 71.775 41.314,72.000 41.495,72.000 41.429 C 72.000 41.364,72.112 41.422,72.250 41.560 C 72.387 41.697,72.500 41.860,72.500 41.921 C 72.500 41.983,73.287 42.808,74.250 43.754 C 75.212 44.700,76.000 45.555,76.000 45.654 C 76.000 45.753,76.103 45.833,76.229 45.833 C 76.354 45.833,76.634 46.092,76.850 46.407 C 77.067 46.723,77.376 47.016,77.538 47.058 C 77.699 47.100,77.876 47.250,77.930 47.391 C 78.050 47.705,79.661 49.333,79.851 49.333 C 79.927 49.333,80.079 49.502,80.189 49.708 C 80.299 49.914,81.408 51.112,82.653 52.369 C 83.898 53.626,85.209 54.993,85.567 55.405 C 85.924 55.818,86.299 56.108,86.400 56.051 C 86.501 55.994,86.532 56.003,86.470 56.073 C 86.407 56.142,87.476 57.317,88.845 58.684 C 90.213 60.050,91.333 61.247,91.333 61.344 C 91.333 61.441,91.400 61.478,91.482 61.428 C 91.563 61.377,91.742 61.504,91.878 61.710 C 92.082 62.016,99.218 69.375,100.484 70.583 C 101.382 71.441,105.629 75.833,105.560 75.833 C 105.511 75.833,105.650 76.046,105.869 76.307 C 106.823 77.441,106.838 79.188,105.904 80.438 C 105.690 80.724,105.561 81.006,105.618 81.063 C 105.675 81.120,105.597 81.167,105.444 81.167 C 105.292 81.167,105.167 81.242,105.167 81.333 C 105.167 81.425,105.063 81.500,104.937 81.500 C 104.811 81.500,104.616 81.610,104.504 81.745 C 104.393 81.879,104.252 81.976,104.192 81.961 C 104.132 81.945,103.809 82.026,103.473 82.141 C 102.961 82.316,102.762 82.308,102.244 82.092 C 101.904 81.950,101.485 81.833,101.313 81.833 C 101.141 81.833,101.000 81.770,101.000 81.693 C 101.000 81.616,100.740 81.413,100.423 81.242 C 100.106 81.071,99.878 80.900,99.917 80.861 C 99.955 80.823,99.504 80.313,98.914 79.729 C 98.324 79.145,97.889 78.667,97.946 78.667 C 98.004 78.667,97.919 78.520,97.756 78.340 C 97.593 78.160,97.375 78.029,97.272 78.048 C 97.168 78.068,97.102 77.990,97.125 77.875 C 97.148 77.760,97.076 77.685,96.966 77.708 C 96.855 77.731,96.762 77.670,96.758 77.572 C 96.748 77.353,95.205 75.822,94.082 74.917 C 93.627 74.550,93.100 74.100,92.910 73.917 C 92.720 73.733,92.288 73.396,91.950 73.167 C 91.612 72.938,91.335 72.689,91.334 72.615 C 91.334 72.541,91.258 72.527,91.167 72.583 C 91.075 72.640,91.000 72.620,91.000 72.538 C 91.000 72.457,90.644 72.137,90.208 71.829 C 89.773 71.520,89.362 71.188,89.294 71.092 C 89.227 70.996,89.171 70.972,89.169 71.040 C 89.168 71.108,89.014 71.033,88.828 70.873 C 88.642 70.714,88.454 70.602,88.411 70.625 C 88.368 70.648,88.189 70.535,88.012 70.375 C 87.447 69.862,87.261 69.736,86.708 69.492 C 86.410 69.360,86.167 69.195,86.167 69.126 C 86.167 69.057,86.063 69.000,85.937 69.000 C 85.811 69.000,85.615 68.888,85.502 68.752 C 85.388 68.615,85.234 68.542,85.158 68.589 C 85.082 68.635,84.960 68.572,84.885 68.448 C 84.745 68.214,79.435 65.500,79.118 65.500 C 79.019 65.500,78.615 65.343,78.220 65.152 C 77.824 64.961,77.407 64.785,77.292 64.761 C 77.177 64.737,76.872 64.631,76.614 64.526 C 76.356 64.420,76.030 64.333,75.890 64.333 C 75.750 64.333,75.436 64.223,75.192 64.089 C 74.949 63.954,74.337 63.723,73.833 63.576 C 71.253 62.821,70.634 62.667,70.501 62.749 C 70.422 62.798,70.309 62.761,70.250 62.667 C 70.191 62.572,70.079 62.535,70.000 62.583 C 69.921 62.632,69.809 62.596,69.752 62.503 C 69.694 62.410,69.431 62.333,69.168 62.333 C 68.904 62.333,68.487 62.257,68.241 62.163 C 67.846 62.013,67.033 61.872,65.000 61.601 C 60.223 60.965,50.885 61.051,46.917 61.768 C 45.371 62.047,45.305 62.062,45.083 62.184 C 44.992 62.234,44.579 62.296,44.167 62.320 C 43.755 62.345,43.355 62.403,43.278 62.451 C 43.160 62.524,40.858 63.135,39.500 63.454 C 39.271 63.507,38.912 63.663,38.703 63.798 C 38.494 63.934,38.278 64.000,38.223 63.945 C 38.168 63.890,37.966 63.955,37.774 64.089 C 37.583 64.223,37.268 64.333,37.074 64.333 C 36.881 64.333,36.671 64.385,36.608 64.448 C 36.509 64.547,35.574 64.925,35.083 65.064 C 34.814 65.141,33.953 65.519,33.462 65.776 C 33.213 65.907,32.967 66.006,32.916 65.997 C 32.865 65.988,32.338 66.210,31.745 66.490 C 31.151 66.771,30.600 67.000,30.520 67.000 C 30.440 67.000,30.281 67.112,30.168 67.248 C 30.055 67.385,29.901 67.458,29.826 67.412 C 29.751 67.366,29.570 67.498,29.425 67.706 C 29.279 67.913,29.123 68.062,29.077 68.035 C 29.004 67.994,28.094 68.489,26.275 69.559 C 25.986 69.729,25.725 69.936,25.694 70.018 C 25.664 70.100,25.564 70.167,25.472 70.167 C 25.283 70.167,23.815 71.161,23.628 71.417 C 23.560 71.508,23.504 71.522,23.503 71.446 C 23.501 71.371,23.401 71.409,23.279 71.530 C 22.987 71.822,22.260 72.380,21.304 73.047 C 20.875 73.346,20.363 73.796,20.167 74.045 C 19.970 74.295,19.702 74.500,19.571 74.500 C 19.440 74.500,19.333 74.562,19.333 74.639 C 19.333 74.715,19.148 74.876,18.922 74.997 C 18.696 75.118,18.551 75.281,18.599 75.358 C 18.647 75.436,18.626 75.501,18.552 75.503 C 18.324 75.507,16.747 77.004,16.792 77.174 C 16.815 77.262,16.762 77.333,16.674 77.333 C 16.435 77.333,14.671 79.039,14.761 79.184 C 14.803 79.253,14.687 79.357,14.502 79.416 C 14.318 79.475,14.167 79.580,14.167 79.650 C 14.167 79.977,12.490 81.431,11.689 81.798 C 10.464 82.361,9.958 82.366,8.901 81.826 C 8.406 81.572,8.000 81.405,8.000 81.455 C 8.000 81.504,7.834 81.329,7.631 81.064 C 7.428 80.800,7.184 80.528,7.089 80.461 C 6.994 80.394,6.972 80.337,7.039 80.336 C 7.106 80.334,7.024 80.089,6.856 79.790 C 5.930 78.141,6.675 76.666,10.236 73.095 C 11.568 71.759,12.624 70.667,12.584 70.667 C 12.543 70.667,12.751 70.413,13.047 70.102 C 13.342 69.792,13.611 69.563,13.645 69.594 C 13.716 69.660,14.167 69.234,14.167 69.101 C 14.167 69.052,14.954 68.234,15.917 67.285 C 16.879 66.335,17.667 65.470,17.667 65.362 C 17.667 65.255,17.761 65.167,17.876 65.167 C 18.054 65.167,19.167 64.102,19.167 63.932 C 19.167 63.900,20.246 62.783,21.566 61.448 C 22.886 60.113,23.924 58.979,23.872 58.927 C 23.820 58.876,23.862 58.833,23.965 58.833 C 24.214 58.833,25.999 57.055,25.875 56.931 C 25.822 56.877,25.872 56.833,25.986 56.833 C 26.101 56.833,26.432 56.556,26.723 56.216 C 27.013 55.877,28.203 54.665,29.368 53.523 C 30.533 52.381,31.441 51.372,31.384 51.281 C 31.328 51.190,31.355 51.160,31.445 51.216 C 31.617 51.322,32.167 50.776,32.167 50.498 C 32.167 50.407,32.225 50.352,32.295 50.375 C 32.366 50.398,32.701 50.111,33.039 49.737 C 33.377 49.363,35.056 47.638,36.769 45.904 C 38.483 44.169,39.874 42.731,39.859 42.708 C 39.845 42.685,39.854 42.685,39.879 42.708 C 39.976 42.797,40.461 42.243,40.389 42.125 C 40.348 42.056,40.381 42.000,40.462 42.000 C 40.544 42.000,40.830 41.774,41.097 41.497 C 41.365 41.220,42.483 40.086,43.583 38.977 C 44.683 37.868,45.565 36.894,45.542 36.813 C 45.519 36.733,45.556 36.684,45.625 36.706 C 45.694 36.728,46.283 36.180,46.935 35.490 C 47.587 34.799,49.253 33.091,50.638 31.695 C 52.023 30.299,53.159 29.122,53.162 29.078 C 53.164 29.035,53.211 29.019,53.265 29.042 C 53.319 29.065,53.472 28.877,53.604 28.625 C 53.736 28.373,53.959 28.167,54.098 28.167 C 54.238 28.167,54.307 28.092,54.250 28.000 C 54.193 27.908,54.258 27.833,54.393 27.833 C 54.528 27.833,54.664 27.762,54.694 27.675 C 54.808 27.350,56.374 25.833,56.596 25.833 C 56.722 25.833,56.948 26.020,57.098 26.249 " stroke="none" fill="#a414f4" fill-rule="evenodd"></path><path id="path1" d="M184.527 30.053 C 183.604 30.399,182.333 32.117,182.333 33.018 C 182.333 33.131,182.236 33.342,182.118 33.487 C 181.999 33.632,181.803 34.050,181.681 34.417 C 181.559 34.783,181.275 35.496,181.049 36.000 C 180.581 37.048,180.357 37.574,180.127 38.167 C 180.038 38.396,179.871 38.808,179.756 39.083 C 179.641 39.358,179.469 39.771,179.373 40.000 C 179.278 40.229,179.051 40.754,178.870 41.167 C 178.688 41.579,178.111 42.967,177.587 44.250 C 177.063 45.533,176.576 46.658,176.506 46.750 C 176.435 46.842,176.222 47.329,176.031 47.833 C 175.703 48.704,173.838 53.208,173.513 53.917 C 172.713 55.662,172.500 56.178,172.500 56.373 C 172.500 56.498,172.432 56.671,172.350 56.758 C 172.267 56.845,171.883 57.704,171.495 58.667 C 171.107 59.629,170.725 60.488,170.645 60.575 C 170.565 60.662,170.500 60.835,170.500 60.960 C 170.500 61.085,170.306 61.614,170.070 62.135 C 169.833 62.657,169.571 63.252,169.487 63.458 C 169.302 63.909,169.028 64.571,168.744 65.250 C 168.629 65.525,168.458 65.938,168.364 66.167 C 168.270 66.396,168.000 67.010,167.763 67.531 C 167.527 68.053,167.333 68.526,167.333 68.583 C 167.333 68.679,166.733 70.048,166.289 70.964 C 166.047 71.463,166.066 73.550,166.313 73.632 C 166.416 73.666,166.500 73.784,166.500 73.894 C 166.500 74.375,167.932 75.167,168.803 75.167 C 169.761 75.167,171.333 74.317,171.333 73.800 C 171.333 73.725,171.489 73.308,171.679 72.873 C 172.489 71.020,172.575 70.811,173.859 67.626 L 174.917 65.002 185.522 65.001 L 196.128 65.000 196.503 65.958 C 196.709 66.485,197.055 67.306,197.272 67.781 C 197.489 68.257,197.667 68.727,197.667 68.825 C 197.667 68.924,197.731 69.135,197.809 69.294 C 198.066 69.818,198.415 70.644,199.246 72.701 C 200.075 74.752,201.462 75.553,203.183 74.977 C 204.523 74.529,205.347 72.711,204.813 71.383 C 204.710 71.126,204.570 70.767,204.502 70.583 C 204.349 70.171,203.900 69.081,203.334 67.750 C 203.218 67.475,203.064 67.100,202.993 66.917 C 202.922 66.733,202.707 66.227,202.515 65.792 C 202.323 65.356,202.026 64.681,201.855 64.292 C 201.684 63.902,201.447 63.321,201.329 63.000 C 201.211 62.679,200.932 62.004,200.710 61.500 C 200.488 60.996,200.248 60.433,200.176 60.250 C 200.045 59.917,199.969 59.739,199.360 58.333 C 199.181 57.921,198.685 56.731,198.256 55.689 C 197.828 54.646,197.415 53.671,197.339 53.522 C 197.162 53.177,196.097 50.650,195.082 48.167 C 194.651 47.112,194.152 45.913,193.973 45.500 C 193.795 45.087,193.584 44.600,193.504 44.417 C 193.425 44.233,193.176 43.671,192.951 43.167 C 192.725 42.662,192.441 41.950,192.319 41.583 C 192.197 41.217,192.044 40.842,191.980 40.750 C 191.915 40.658,191.632 40.003,191.350 39.293 C 191.068 38.583,190.771 37.871,190.688 37.710 C 190.531 37.401,190.231 36.697,189.960 36.000 C 189.384 34.517,188.241 31.918,187.834 31.167 C 187.294 30.168,185.673 29.622,184.527 30.053 M213.083 30.083 C 211.186 30.751,211.309 29.094,211.367 53.083 L 211.417 73.417 211.806 73.962 C 212.965 75.587,215.184 75.540,216.454 73.862 L 217.000 73.141 217.004 58.279 L 217.008 43.417 217.912 45.167 C 218.409 46.129,218.971 47.254,219.162 47.667 C 219.352 48.079,219.614 48.604,219.743 48.833 C 219.872 49.063,220.135 49.587,220.326 50.000 C 220.518 50.413,220.780 50.938,220.910 51.167 C 221.039 51.396,221.301 51.921,221.493 52.333 C 221.685 52.746,221.943 53.271,222.068 53.500 C 222.192 53.729,222.943 55.229,223.736 56.833 C 224.528 58.438,225.248 59.862,225.335 60.000 C 225.422 60.137,225.646 60.587,225.834 61.000 C 226.021 61.413,226.267 61.920,226.379 62.128 C 226.491 62.335,227.735 64.797,229.143 67.598 C 232.091 73.463,232.254 73.667,233.988 73.667 C 234.946 73.667,235.438 73.451,236.056 72.759 C 236.343 72.438,239.263 66.607,243.154 58.583 C 244.087 56.658,244.921 54.971,245.006 54.833 C 245.092 54.696,245.275 54.340,245.414 54.042 C 245.553 53.744,245.780 53.256,245.919 52.958 C 246.058 52.660,246.240 52.304,246.323 52.167 C 246.407 52.029,247.201 50.417,248.087 48.583 C 248.974 46.750,249.992 44.653,250.350 43.924 L 251.000 42.597 251.000 57.788 C 251.000 73.710,250.989 73.482,251.786 74.302 C 252.875 75.423,254.471 75.436,255.762 74.333 C 256.712 73.522,256.667 74.619,256.667 52.500 C 256.667 30.413,256.712 31.511,255.772 30.641 C 254.140 29.131,251.762 29.928,250.822 32.301 C 250.615 32.823,250.383 33.333,250.306 33.434 C 250.121 33.677,246.687 40.653,243.340 47.583 C 242.499 49.325,241.747 50.862,241.670 51.000 C 241.507 51.287,239.897 54.541,238.000 58.417 C 237.282 59.883,236.135 62.224,235.450 63.617 C 234.766 65.011,234.156 66.101,234.095 66.040 C 234.034 65.978,233.839 65.626,233.663 65.256 C 233.486 64.886,233.269 64.471,233.180 64.333 C 233.092 64.196,232.096 62.228,230.968 59.960 C 229.840 57.692,228.825 55.667,228.712 55.460 C 228.600 55.253,228.351 54.746,228.160 54.333 C 227.968 53.921,227.705 53.396,227.576 53.167 C 227.447 52.938,227.185 52.413,226.993 52.000 C 226.801 51.587,226.539 51.063,226.410 50.833 C 226.280 50.604,226.017 50.079,225.824 49.667 C 225.240 48.417,224.833 47.597,224.666 47.333 C 224.579 47.196,224.354 46.746,224.166 46.333 C 223.979 45.921,223.720 45.396,223.590 45.167 C 223.461 44.938,223.199 44.413,223.007 44.000 C 222.815 43.587,222.553 43.063,222.424 42.833 C 222.295 42.604,222.032 42.079,221.840 41.667 C 221.649 41.254,221.400 40.747,221.288 40.539 C 221.175 40.332,220.052 38.111,218.791 35.603 C 216.328 30.705,216.050 30.303,214.922 30.019 C 214.009 29.789,213.908 29.792,213.083 30.083 M281.680 30.065 C 281.069 30.286,280.000 31.394,280.000 31.806 C 280.000 31.944,279.903 32.175,279.784 32.320 C 279.666 32.465,279.469 32.883,279.347 33.250 C 279.127 33.913,278.455 35.487,278.156 36.039 C 278.070 36.199,278.000 36.409,278.000 36.508 C 278.000 36.607,277.805 37.114,277.567 37.635 C 277.329 38.157,276.954 38.979,276.734 39.463 C 276.514 39.947,276.333 40.438,276.333 40.555 C 276.333 40.671,276.270 40.838,276.192 40.925 C 276.114 41.012,275.656 42.053,275.174 43.239 C 274.692 44.424,274.232 45.512,274.151 45.655 C 274.071 45.799,273.433 47.304,272.733 49.000 C 272.034 50.696,271.246 52.557,270.981 53.137 C 270.716 53.716,270.500 54.261,270.500 54.347 C 270.500 54.434,270.430 54.635,270.344 54.794 C 270.112 55.223,269.417 56.831,269.175 57.500 C 269.058 57.821,268.784 58.447,268.565 58.890 C 268.346 59.334,268.167 59.763,268.167 59.844 C 268.167 59.925,267.971 60.424,267.733 60.954 C 267.494 61.483,267.221 62.104,267.126 62.333 C 267.031 62.563,266.859 62.975,266.744 63.250 C 266.629 63.525,266.462 63.938,266.373 64.167 C 266.102 64.863,265.803 65.567,265.645 65.876 C 265.563 66.038,265.266 66.750,264.985 67.460 C 264.705 68.169,264.406 68.821,264.321 68.908 C 264.236 68.995,264.167 69.169,264.167 69.294 C 264.167 69.418,263.988 69.910,263.769 70.385 C 262.712 72.683,263.278 74.510,265.208 75.025 C 267.109 75.532,268.088 74.775,269.232 71.917 C 269.672 70.817,270.092 69.799,270.165 69.655 C 270.239 69.511,270.539 68.799,270.833 68.072 C 271.127 67.345,271.510 66.432,271.684 66.043 C 271.858 65.655,272.000 65.261,272.000 65.168 C 272.000 65.057,275.586 65.000,282.654 65.000 L 293.307 65.000 293.512 65.625 C 293.625 65.969,293.811 66.400,293.925 66.583 C 294.039 66.767,294.186 67.104,294.251 67.333 C 294.363 67.723,294.549 68.195,295.072 69.417 C 295.190 69.692,295.380 70.142,295.494 70.417 C 295.608 70.692,295.799 71.142,295.917 71.417 C 296.035 71.692,296.306 72.366,296.519 72.916 C 297.241 74.784,298.807 75.578,300.430 74.900 C 302.032 74.231,302.562 72.573,301.756 70.750 C 301.635 70.475,301.462 70.063,301.373 69.833 C 301.127 69.200,300.902 68.675,300.430 67.635 C 300.194 67.114,300.000 66.615,300.000 66.526 C 300.000 66.437,299.821 66.001,299.602 65.557 C 299.383 65.113,299.108 64.487,298.992 64.167 C 298.876 63.846,298.599 63.171,298.377 62.667 C 298.155 62.163,297.896 61.563,297.802 61.333 C 297.629 60.911,297.406 60.386,296.950 59.333 C 296.812 59.012,296.128 57.362,295.431 55.667 C 294.734 53.971,294.095 52.462,294.011 52.313 C 293.927 52.165,293.321 50.740,292.665 49.147 C 291.437 46.164,291.321 45.890,290.620 44.333 C 290.393 43.829,290.108 43.117,289.986 42.750 C 289.864 42.383,289.711 42.008,289.646 41.916 C 289.581 41.824,289.376 41.365,289.191 40.895 C 289.006 40.426,288.692 39.676,288.494 39.229 C 288.296 38.782,288.055 38.229,287.960 38.000 C 287.865 37.771,287.693 37.358,287.578 37.083 C 287.224 36.239,286.961 35.599,286.824 35.250 C 286.752 35.067,286.500 34.490,286.263 33.969 C 286.027 33.447,285.833 32.948,285.833 32.859 C 285.833 32.592,285.018 31.105,284.621 30.649 C 284.027 29.966,282.688 29.700,281.680 30.065 M310.206 30.111 C 309.771 30.265,309.317 30.595,309.039 30.960 L 308.583 31.557 308.535 52.070 C 308.509 63.352,308.531 72.831,308.586 73.135 C 308.709 73.816,309.561 74.723,310.317 74.977 C 311.282 75.300,335.834 75.241,336.619 74.912 C 338.650 74.064,338.944 71.395,337.153 70.074 L 336.602 69.667 325.384 69.667 L 314.167 69.667 314.167 51.025 C 314.167 37.287,314.116 32.234,313.973 31.817 C 313.448 30.284,311.812 29.543,310.206 30.111 M343.615 30.036 C 343.265 30.129,342.721 30.470,342.406 30.795 L 341.833 31.384 341.833 52.404 L 341.833 73.424 342.363 74.066 C 343.589 75.554,345.762 75.503,346.861 73.962 L 347.250 73.417 347.298 64.208 L 347.347 55.000 356.133 55.000 C 361.471 55.000,365.147 54.935,365.501 54.834 C 367.286 54.325,367.770 51.749,366.324 50.458 L 365.624 49.833 356.479 49.833 L 347.333 49.833 347.333 42.500 L 347.333 35.167 359.572 35.167 C 367.568 35.167,371.968 35.107,372.263 34.995 C 374.331 34.209,374.178 30.823,372.043 30.095 C 371.118 29.780,344.786 29.726,343.615 30.036 M383.277 30.037 C 382.319 30.291,381.574 31.123,381.442 32.087 C 381.304 33.092,381.302 72.202,381.439 73.035 C 381.850 75.523,385.611 75.885,386.813 73.553 C 387.121 72.954,387.075 31.962,386.766 31.367 C 386.122 30.129,384.813 29.630,383.277 30.037 M186.038 40.333 C 186.128 40.563,186.296 40.975,186.411 41.250 C 186.526 41.525,186.713 41.975,186.828 42.250 C 186.942 42.525,187.131 42.975,187.248 43.250 C 187.365 43.525,188.077 45.288,188.830 47.167 C 189.583 49.046,190.277 50.771,190.373 51.000 C 190.468 51.229,190.641 51.642,190.756 51.917 C 190.871 52.192,191.056 52.642,191.167 52.917 C 191.352 53.377,191.477 53.677,191.961 54.833 C 192.057 55.063,192.251 55.550,192.392 55.917 C 192.533 56.283,192.981 57.390,193.387 58.375 L 194.126 60.167 185.563 60.167 C 180.853 60.167,177.000 60.131,177.000 60.087 C 177.000 59.985,177.466 58.738,177.749 58.083 C 177.868 57.808,178.048 57.377,178.149 57.125 C 178.414 56.465,178.596 56.035,179.047 55.000 C 179.267 54.496,179.732 53.371,180.081 52.500 C 180.430 51.629,180.892 50.528,181.108 50.052 C 181.324 49.576,181.500 49.107,181.500 49.008 C 181.500 48.909,181.567 48.699,181.648 48.539 C 181.874 48.098,182.525 46.570,182.871 45.667 C 182.959 45.438,183.136 45.038,183.265 44.778 C 183.394 44.519,183.500 44.233,183.500 44.143 C 183.500 44.053,183.677 43.590,183.893 43.115 C 184.110 42.639,184.454 41.837,184.658 41.333 C 185.570 39.080,185.559 39.099,185.724 39.529 C 185.806 39.742,185.947 40.104,186.038 40.333 M283.000 39.693 C 283.000 39.788,283.120 40.140,283.267 40.475 C 283.414 40.809,283.609 41.271,283.701 41.500 C 283.793 41.729,283.964 42.142,284.082 42.417 C 284.199 42.692,284.913 44.454,285.670 46.333 C 286.426 48.212,287.222 50.139,287.439 50.615 C 287.656 51.090,287.833 51.560,287.833 51.659 C 287.833 51.757,287.897 51.968,287.975 52.127 C 288.115 52.411,288.448 53.172,288.794 54.000 C 288.890 54.229,289.082 54.717,289.220 55.083 C 289.359 55.450,289.885 56.744,290.389 57.958 L 291.306 60.167 282.652 60.167 C 274.463 60.167,274.005 60.151,274.147 59.875 C 274.297 59.582,274.621 58.844,275.006 57.917 C 275.120 57.642,275.307 57.192,275.422 56.917 C 275.685 56.289,276.004 55.517,276.180 55.083 C 276.254 54.900,276.456 54.413,276.628 54.000 C 276.800 53.587,277.079 52.913,277.247 52.500 C 277.415 52.087,277.728 51.361,277.943 50.885 C 278.158 50.410,278.333 49.940,278.333 49.841 C 278.333 49.743,278.397 49.532,278.475 49.373 C 278.626 49.067,278.982 48.249,279.328 47.417 C 279.710 46.495,280.036 45.752,280.185 45.461 C 280.267 45.301,280.333 45.091,280.333 44.992 C 280.333 44.893,280.511 44.424,280.729 43.948 C 280.946 43.472,281.314 42.596,281.547 42.000 C 282.508 39.542,283.000 38.760,283.000 39.693 " stroke="none" fill="#040404" fill-rule="evenodd"></path><path id="path2" d="M22.073 60.875 L 21.583 61.417 22.125 60.927 C 22.630 60.471,22.743 60.333,22.615 60.333 C 22.586 60.333,22.342 60.577,22.073 60.875 M116.750 68.667 C 117.108 69.033,117.438 69.333,117.484 69.333 C 117.530 69.333,117.275 69.033,116.917 68.667 C 116.559 68.300,116.228 68.000,116.182 68.000 C 116.137 68.000,116.392 68.300,116.750 68.667 " stroke="none" fill="#ac14f4" fill-rule="evenodd"></path><path id="path3" d="" stroke="none" fill="#a80cb8" fill-rule="evenodd"></path><path id="path4" d="" stroke="none" fill="#a80cb8" fill-rule="evenodd"></path></g></svg>